{
.appVersion = "3326";
.formatVersion = 3;
DisplayStrings = (
"?",
A,
p,
D,
"ABforglyphinCDEFGHIJKLMNOPQRSTUVWXYZabcdefghijklmnopqrsßtuvwxyz.,:;…!?"
);
date = "2018-11-14 11:04:06 +0000";
familyName = Baskervville;
fontMaster = (
{
guides = (
{
pos = (555,940);
},
{
pos = (445,-178);
},
{
pos = (514,658);
},
{
pos = (317,-115);
},
{
pos = (409,710);
},
{
pos = (410,-142);
}
);
id = "9372F035-DA38-4B54-966C-CEBA9B53DD02";
metricValues = (
{
over = 14;
pos = 710;
},
{
over = 14;
pos = 710;
},
{
over = 18;
pos = 436;
},
{
over = -11;
},
{
over = -14;
pos = -290;
},
{
}
);
name = Regular;
userData = {
GSCornerRadius = 14;
GSOffsetHorizontal = 3.5;
GSOffsetVertical = 0;
};
visible = 1;
}
);
glyphs = (
{
glyphname = A;
kernLeft = A;
kernRight = A;
lastChange = "2024-11-13 14:42:18 +0000";
layers = (
{
anchors = (
{
name = bottom;
pos = (344,0);
},
{
name = ogonek;
pos = (649,0);
},
{
name = top;
pos = (374,710);
}
);
layerId = "9372F035-DA38-4B54-966C-CEBA9B53DD02";
shapes = (
{
closed = 1;
nodes = (
(0,0,l),
(0,0,l),
(0,0,l),
(0,0,ls),
(0,0,o),
(0,0,o),
(0,0,cs),
(0,0,o),
(0,0,o),
(0,0,cs),
(0,0,l),
(0,0,l),
(0,0,ls),
(0,0,o),
(0,0,o),
(0,0,cs),
(0,0,o),
(0,0,o),
(0,0,cs),
(0,0,l),
(0,0,l),
(0,0,l),
(0,0,l),
(0,0,l),
(0,0,ls),
(0,0,o),
(0,0,o),
(0,0,cs),
(0,0,l),
(0,0,l),
(0,0,ls),
(0,0,o),
(0,0,o),
(0,0,cs),
(0,0,l),
(0,0,l)
);
},
{
closed = 1;
nodes = (
(0,0,l),
(0,0,l),
(0,0,l),
(0,0,l)
);
}
);
width = 0;
}
);
unicode = 65;
},
{
glyphname = B;
kernLeft = H;
kernRight = B;
lastChange = "2024-11-13 14:41:55 +0000";
layers = (
{
anchors = (
{
name = bottom;
pos = (332,0);
},
{
name = top;
pos = (332,710);
}
);
layerId = "9372F035-DA38-4B54-966C-CEBA9B53DD02";
shapes = (
{
closed = 1;
nodes = (
(0,0,l),
(0,0,ls),
(0,0,o),
(0,0,o),
(0,0,cs),
(0,0,o),
(0,0,o),
(0,0,c),
(0,0,o),
(0,0,o),
(0,0,cs),
(0,0,o),
(0,0,o),
(0,0,cs),
(0,0,l),
(0,0,l),
(0,0,l),
(0,0,ls),
(0,0,o),
(0,0,o),
(0,0,cs),
(0,0,ls),
(0,0,o),
(0,0,o),
(0,0,cs),
(0,0,l),
(0,0,l)
);
},
{
closed = 1;
nodes = (
(0,0,o),
(0,0,o),
(0,0,cs),
(0,0,l),
(0,0,ls),
(0,0,o),
(0,0,o),
(0,0,cs),
(0,0,o),
(0,0,o),
(0,0,cs),
(0,0,l),
(0,0,l),
(0,0,ls),
(0,0,o),
(0,0,o),
(0,0,cs),
(0,0,o),
(0,0,o),
(0,0,cs),
(0,0,ls)
);
}
);
width = 0;
}
);
unicode = 66;
},
{
glyphname = C;
kernLeft = O;
kernRight = C;
lastChange = "2024-11-13 14:41:55 +0000";
layers = (
{
anchors = (
{
name = bottom;
pos = (381,0);
},
{
name = top;
pos = (394,710);
}
);
layerId = "9372F035-DA38-4B54-966C-CEBA9B53DD02";
shapes = (
{
closed = 1;
nodes = (
(0,0,o),
(0,0,o),
(0,0,cs),
(0,0,o),
(0,0,o),
(0,0,cs),
(0,0,o),
(0,0,o),
(0,0,cs),
(0,0,l),
(0,0,l),
(0,0,l),
(0,0,l),
(0,0,l),
(0,0,o),
(0,0,o),
(0,0,cs),
(0,0,o),
(0,0,o),
(0,0,cs),
(0,0,o),
(0,0,o),
(0,0,cs),
(0,0,o),
(0,0,o),
(0,0,c),
(0,0,l),
(0,0,l),
(0,0,l),
(0,0,l),
(0,0,o),
(0,0,o),
(0,0,cs),
(0,0,o),
(0,0,o),
(0,0,cs),
(0,0,o),
(0,0,o),
(0,0,cs),
(0,0,o),
(0,0,o),
(0,0,cs),
(0,0,o),
(0,0,o),
(0,0,cs)
);
}
);
width = 0;
}
);
metricLeft = O;
unicode = 67;
},
{
color = 6;
glyphname = D;
kernLeft = H;
kernRight = O;
lastChange = "2024-11-13 14:41:55 +0000";
layers = (
{
anchors = (
{
name = bottom;
pos = (381,0);
},
{
name = center;
pos = (231,367);
},
{
name = top;
pos = (361,710);
}
);
layerId = "9372F035-DA38-4B54-966C-CEBA9B53DD02";
shapes = (
{
closed = 1;
nodes = (
(0,0,l),
(0,0,ls),
(0,0,o),
(0,0,o),
(0,0,cs),
(0,0,o),
(0,0,o),
(0,0,cs),
(0,0,l),
(0,0,l),
(0,0,l),
(0,0,ls),
(0,0,o),
(0,0,o),
(0,0,cs),
(0,0,ls),
(0,0,o),
(0,0,o),
(0,0,cs),
(0,0,l),
(0,0,l)
);
},
{
closed = 1;
nodes = (
(0,0,o),
(0,0,o),
(0,0,cs),
(0,0,l),
(0,0,ls),
(0,0,o),
(0,0,o),
(0,0,cs),
(0,0,o),
(0,0,o),
(0,0,cs),
(0,0,ls)
);
}
);
width = 0;
}
);
metricLeft = I;
metricRight = "=O-20";
unicode = 68;
},
{
glyphname = E;
kernLeft = H;
kernRight = H;
lastChange = "2024-11-13 14:41:55 +0000";
layers = (
{
anchors = (
{
name = bottom;
pos = (353,0);
},
{
name = ogonek;
pos = (559,0);
},
{
name = top;
pos = (363,710);
},
{
name = topleft;
pos = (2,710);
}
);
layerId = "9372F035-DA38-4B54-966C-CEBA9B53DD02";
shapes = (
{
closed = 1;
nodes = (
(0,0,l),
(0,0,l),
(0,0,l),
(0,0,l),
(0,0,l),
(0,0,o),
(0,0,o),
(0,0,cs),
(0,0,ls),
(0,0,o),
(0,0,o),
(0,0,cs),
(0,0,l),
(0,0,ls),
(0,0,o),
(0,0,o),
(0,0,c),
(0,0,l),
(0,0,l),
(0,0,l),
(0,0,l),
(0,0,l),
(0,0,l),
(0,0,ls),
(0,0,o),
(0,0,o),
(0,0,cs),
(0,0,ls),
(0,0,o),
(0,0,o),
(0,0,cs),
(0,0,l),
(0,0,l)
);
},
{
closed = 1;
nodes = (
(0,0,l),
(0,0,l),
(0,0,l),
(0,0,l),
(0,0,o),
(0,0,o),
(0,0,cs),
(0,0,l),
(0,0,l),
(0,0,ls),
(0,0,o),
(0,0,o),
(0,0,c)
);
}
);
width = 0;
}
);
metricLeft = I;
unicode = 69;
},
{
glyphname = F;
kernLeft = H;
kernRight = F;
lastChange = "2024-11-13 14:41:55 +0000";
layers = (
{
anchors = (
{
name = bottom;
pos = (197,0);
},
{
name = top;
pos = (337,710);
}
);
layerId = "9372F035-DA38-4B54-966C-CEBA9B53DD02";
shapes = (
{
closed = 1;
nodes = (
(0,0,l),
(0,0,l),
(0,0,l),
(0,0,l),
(0,0,ls),
(0,0,o),
(0,0,o),
(0,0,cs),
(0,0,l),
(0,0,ls),
(0,0,o),
(0,0,o),
(0,0,c),
(0,0,l),
(0,0,l),
(0,0,l),
(0,0,l),
(0,0,l),
(0,0,l),
(0,0,ls),
(0,0,o),
(0,0,o),
(0,0,cs),
(0,0,ls),
(0,0,o),
(0,0,o),
(0,0,cs),
(0,0,l),
(0,0,l)
);
},
{
closed = 1;
nodes = (
(0,0,l),
(0,0,l),
(0,0,l),
(0,0,l),
(0,0,o),
(0,0,o),
(0,0,cs),
(0,0,l),
(0,0,l),
(0,0,ls),
(0,0,o),
(0,0,o),
(0,0,c)
);
}
);
width = 0;
}
);
metricLeft = I;
unicode = 70;
},
{
glyphname = G;
kernLeft = O;
kernRight = G;
lastChange = "2024-11-13 14:41:55 +0000";
layers = (
{
anchors = (
{
name = bottom;
pos = (399,0);
},
{
name = top;
pos = (399,710);
}
);
layerId = "9372F035-DA38-4B54-966C-CEBA9B53DD02";
shapes = (
{
closed = 1;
nodes = (
(0,0,o),
(0,0,o),
(0,0,cs),
(0,0,o),
(0,0,o),
(0,0,cs),
(0,0,o),
(0,0,o),
(0,0,c),
(0,0,l),
(0,0,ls),
(0,0,o),
(0,0,o),
(0,0,cs),
(0,0,ls),
(0,0,o),
(0,0,o),
(0,0,cs),
(0,0,l),
(0,0,l),
(0,0,l),
(0,0,l),
(0,0,l),
(0,0,ls),
(0,0,o),
(0,0,o),
(0,0,cs),
(0,0,ls),
(0,0,o),
(0,0,o),
(0,0,cs),
(0,0,o),
(0,0,o),
(0,0,cs),
(0,0,o),
(0,0,o),
(0,0,cs),
(0,0,o),
(0,0,o),
(0,0,c),
(0,0,l),
(0,0,l),
(0,0,l),
(0,0,l),
(0,0,o),
(0,0,o),
(0,0,cs),
(0,0,o),
(0,0,o),
(0,0,cs),
(0,0,o),
(0,0,o),
(0,0,cs),
(0,0,o),
(0,0,o),
(0,0,cs),
(0,0,o),
(0,0,o),
(0,0,cs)
);
}
);
width = 0;
}
);
metricLeft = O;
unicode = 71;
},
{
glyphname = H;
kernLeft = H;
kernRight = H;
lastChange = "2024-11-13 14:41:55 +0000";
layers = (
{
anchors = (
{
name = bottom;
pos = (420,0);
},
{
name = center;
pos = (420,521);
},
{
name = ogonek;
pos = (680,0);
},
{
name = top;
pos = (425,710);
},
{
name = topleft;
pos = (-10,710);
}
);
layerId = "9372F035-DA38-4B54-966C-CEBA9B53DD02";
shapes = (
{
closed = 1;
nodes = (
(0,0,l),
(0,0,l),
(0,0,l),
(0,0,l)
);
},
{
closed = 1;
nodes = (
(0,0,l),
(0,0,l),
(0,0,l),
(0,0,l),
(0,0,ls),
(0,0,o),
(0,0,o),
(0,0,cs),
(0,0,ls),
(0,0,o),
(0,0,o),
(0,0,cs),
(0,0,l),
(0,0,l),
(0,0,l),
(0,0,l),
(0,0,l),
(0,0,l),
(0,0,ls),
(0,0,o),
(0,0,o),
(0,0,cs),
(0,0,ls),
(0,0,o),
(0,0,o),
(0,0,cs),
(0,0,l),
(0,0,l)
);
},
{
closed = 1;
nodes = (
(0,0,l),
(0,0,l),
(0,0,l),
(0,0,l),
(0,0,ls),
(0,0,o),
(0,0,o),
(0,0,cs),
(0,0,ls),
(0,0,o),
(0,0,o),
(0,0,cs),
(0,0,l),
(0,0,l),
(0,0,l),
(0,0,l),
(0,0,l),
(0,0,l),
(0,0,ls),
(0,0,o),
(0,0,o),
(0,0,cs),
(0,0,ls),
(0,0,o),
(0,0,o),
(0,0,cs),
(0,0,l),
(0,0,l)
);
}
);
width = 0;
}
);
metricLeft = I;
metricRight = I;
unicode = 72;
},
{
glyphname = I;
kernLeft = H;
kernRight = H;
lastChange = "2024-11-13 14:41:55 +0000";
layers = (
{
anchors = (
{
name = bottom;
pos = (180,0);
},
{
name = ogonek;
pos = (214,0);
},
{
name = top;
pos = (187,710);
},
{
name = topleft;
pos = (-5,710);
}
);
layerId = "9372F035-DA38-4B54-966C-CEBA9B53DD02";
shapes = (
{
closed = 1;
nodes = (
(0,0,l),
(0,0,l),
(0,0,l),
(0,0,l),
(0,0,ls),
(0,0,o),
(0,0,o),
(0,0,cs),
(0,0,ls),
(0,0,o),
(0,0,o),
(0,0,cs),
(0,0,l),
(0,0,l),
(0,0,l),
(0,0,l),
(0,0,l),
(0,0,l),
(0,0,ls),
(0,0,o),
(0,0,o),
(0,0,cs),
(0,0,ls),
(0,0,o),
(0,0,o),
(0,0,cs),
(0,0,l),
(0,0,l)
);
}
);
width = 0;
}
);
unicode = 73;
},
{
glyphname = J;
kernLeft = J;
kernRight = J;
lastChange = "2024-11-13 14:41:55 +0000";
layers = (
{
anchors = (
{
name = bottom;
pos = (193,0);
},
{
name = top;
pos = (253,710);
}
);
layerId = "9372F035-DA38-4B54-966C-CEBA9B53DD02";
shapes = (
{
closed = 1;
nodes = (
(0,0,o),
(0,0,o),
(0,0,cs),
(0,0,ls),
(0,0,o),
(0,0,o),
(0,0,cs),
(0,0,l),
(0,0,l),
(0,0,l),
(0,0,l),
(0,0,l),
(0,0,l),
(0,0,ls),
(0,0,o),
(0,0,o),
(0,0,cs),
(0,0,ls),
(0,0,o),
(0,0,o),
(0,0,cs),
(0,0,o),
(0,0,o),
(0,0,cs),
(0,0,o),
(0,0,o),
(0,0,c),
(0,0,o),
(0,0,o),
(0,0,cs),
(0,0,o),
(0,0,o),
(0,0,cs),
(0,0,o),
(0,0,o),
(0,0,cs),
(0,0,o),
(0,0,o),
(0,0,cs)
);
}
);
width = 0;
}
);
unicode = 74;
},
{
glyphname = K;
kernLeft = H;
kernRight = K;
lastChange = "2024-11-13 14:41:55 +0000";
layers = (
{
anchors = (
{
name = bottom;
pos = (393,0);
},
{
name = top;
pos = (371,710);
}
);
layerId = "9372F035-DA38-4B54-966C-CEBA9B53DD02";
shapes = (
{
closed = 1;
nodes = (
(0,0,ls),
(0,0,o),
(0,0,o),
(0,0,cs),
(0,0,l),
(0,0,l),
(0,0,l),
(0,0,l),
(0,0,l),
(0,0,ls),
(0,0,o),
(0,0,o),
(0,0,cs),
(0,0,o),
(0,0,o),
(0,0,cs),
(0,0,l),
(0,0,l)
);
},
{
closed = 1;
nodes = (
(0,0,l),
(0,0,l),
(0,0,l),
(0,0,l),
(0,0,ls),
(0,0,o),
(0,0,o),
(0,0,cs),
(0,0,ls),
(0,0,o),
(0,0,o),
(0,0,cs),
(0,0,l),
(0,0,l),
(0,0,l),
(0,0,l),
(0,0,l),
(0,0,ls),
(0,0,o),
(0,0,o),
(0,0,cs),
(0,0,ls),
(0,0,o),
(0,0,o),
(0,0,cs),
(0,0,l),
(0,0,l)
);
},
{
closed = 1;
nodes = (
(0,0,l),
(0,0,l),
(0,0,l),
(0,0,ls),
(0,0,o),
(0,0,o),
(0,0,cs),
(0,0,l),
(0,0,l),
(0,0,ls),
(0,0,o),
(0,0,o),
(0,0,cs),
(0,0,o),
(0,0,o),
(0,0,cs),
(0,0,l),
(0,0,l)
);
}
);
width = 0;
}
);
metricLeft = I;
unicode = 75;
},
{
glyphname = L;
kernLeft = H;
kernRight = L;
lastChange = "2024-11-13 14:41:55 +0000";
layers = (
{
anchors = (
{
name = bottom;
pos = (359,0);
},
{
name = center;
pos = (212,375);
},
{
name = top;
pos = (188,710);
},
{
name = topright;
pos = (409,710);
}
);
layerId = "9372F035-DA38-4B54-966C-CEBA9B53DD02";
shapes = (
{
closed = 1;
nodes = (
(0,0,l),
(0,0,l),
(0,0,l),
(0,0,l),
(0,0,o),
(0,0,o),
(0,0,cs),
(0,0,ls),
(0,0,o),
(0,0,o),
(0,0,cs),
(0,0,ls),
(0,0,o),
(0,0,o),
(0,0,cs),
(0,0,l),
(0,0,l),
(0,0,l),
(0,0,l),
(0,0,l),
(0,0,ls),
(0,0,o),
(0,0,o),
(0,0,cs),
(0,0,ls),
(0,0,o),
(0,0,o),
(0,0,cs),
(0,0,l),
(0,0,l)
);
}
);
width = 0;
}
);
metricLeft = I;
unicode = 76;
},
{
glyphname = M;
kernLeft = M;
kernRight = H;
lastChange = "2024-11-13 14:41:55 +0000";
layers = (
{
anchors = (
{
name = bottom;
pos = (443,0);
},
{
name = top;
pos = (497,710);
}
);
guides = (
{
pos = (547,642);
}
);
layerId = "9372F035-DA38-4B54-966C-CEBA9B53DD02";
shapes = (
{
closed = 1;
nodes = (
(0,0,l),
(0,0,l),
(0,0,l),
(0,0,ls),
(0,0,o),
(0,0,o),
(0,0,cs),
(0,0,l),
(0,0,l),
(0,0,l),
(0,0,l),
(0,0,l),
(0,0,l),
(0,0,ls),
(0,0,o),
(0,0,o),
(0,0,cs),
(0,0,l),
(0,0,l),
(0,0,l),
(0,0,l),
(0,0,l),
(0,0,ls),
(0,0,o),
(0,0,o),
(0,0,cs),
(0,0,ls),
(0,0,o),
(0,0,o),
(0,0,cs),
(0,0,l),
(0,0,l),
(0,0,l),
(0,0,l),
(0,0,l),
(0,0,l),
(0,0,l),
(0,0,l),
(0,0,l),
(0,0,l),
(0,0,ls),
(0,0,o),
(0,0,o),
(0,0,cs),
(0,0,ls),
(0,0,o),
(0,0,o),
(0,0,cs),
(0,0,l),
(0,0,l)
);
}
);
width = 0;
}
);
metricRight = I;
unicode = 77;
},
{
glyphname = N;
kernLeft = M;
kernRight = N;
lastChange = "2024-11-13 14:41:55 +0000";
layers = (
{
anchors = (
{
name = bottom;
pos = (436,0);
},
{
name = top;
pos = (402,710);
}
);
layerId = "9372F035-DA38-4B54-966C-CEBA9B53DD02";
shapes = (
{
closed = 1;
nodes = (
(0,0,l),
(0,0,l),
(0,0,l),
(0,0,ls),
(0,0,o),
(0,0,o),
(0,0,cs),
(0,0,l),
(0,0,l),
(0,0,o),
(0,0,o),
(0,0,c),
(0,0,l),
(0,0,ls),
(0,0,o),
(0,0,o),
(0,0,cs),
(0,0,l),
(0,0,l),
(0,0,l),
(0,0,l),
(0,0,l),
(0,0,ls),
(0,0,o),
(0,0,o),
(0,0,cs),
(0,0,l),
(0,0,l),
(0,0,o),
(0,0,o),
(0,0,c),
(0,0,l),
(0,0,l),
(0,0,ls),
(0,0,o),
(0,0,o),
(0,0,c),
(0,0,ls),
(0,0,o),
(0,0,o),
(0,0,cs),
(0,0,l),
(0,0,l)
);
}
);
width = 0;
}
);
metricLeft = M;
unicode = 78;
},
{
glyphname = O;
kernLeft = O;
kernRight = O;
lastChange = "2024-11-13 14:41:55 +0000";
layers = (
{
anchors = (
{
name = bottom;
pos = (410,0);
},
{
name = center;
pos = (410,355);
},
{
name = ogonek;
pos = (484,0);
},
{
name = top;
pos = (409,710);
},
{
name = topleft;
pos = (22,710);
}
);
layerId = "9372F035-DA38-4B54-966C-CEBA9B53DD02";
shapes = (
{
closed = 1;
nodes = (
(0,0,o),
(0,0,o),
(0,0,cs),
(0,0,o),
(0,0,o),
(0,0,cs),
(0,0,o),
(0,0,o),
(0,0,cs),
(0,0,o),
(0,0,o),
(0,0,cs)
);
},
{
closed = 1;
nodes = (
(0,0,o),
(0,0,o),
(0,0,cs),
(0,0,o),
(0,0,o),
(0,0,cs),
(0,0,o),
(0,0,o),
(0,0,cs),
(0,0,o),
(0,0,o),
(0,0,cs)
);
}
);
width = 0;
}
);
unicode = 79;
},
{
glyphname = P;
kernLeft = H;
kernRight = P;
lastChange = "2024-11-13 14:41:55 +0000";
layers = (
{
anchors = (
{
name = bottom;
pos = (187,0);
},
{
name = top;
pos = (297,710);
}
);
layerId = "9372F035-DA38-4B54-966C-CEBA9B53DD02";
shapes = (
{
closed = 1;
nodes = (
(0,0,l),
(0,0,l),
(0,0,l),
(0,0,ls),
(0,0,o),
(0,0,o),
(0,0,cs),
(0,0,l),
(0,0,ls),
(0,0,o),
(0,0,o),
(0,0,cs),
(0,0,o),
(0,0,o),
(0,0,cs),
(0,0,l),
(0,0,l),
(0,0,ls),
(0,0,o),
(0,0,o),
(0,0,cs),
(0,0,o),
(0,0,o),
(0,0,cs),
(0,0,l),
(0,0,l),
(0,0,l),
(0,0,ls),
(0,0,o),
(0,0,o),
(0,0,cs),
(0,0,ls),
(0,0,o),
(0,0,o),
(0,0,cs),
(0,0,l),
(0,0,l)
);
}
);
width = 0;
}
);
metricLeft = I;
unicode = 80;
},
{
glyphname = Q;
kernLeft = O;
kernRight = O;
lastChange = "2024-11-13 14:41:55 +0000";
layers = (
{
anchors = (
{
name = bottom;
pos = (410,0);
},
{
name = center;
pos = (410,355);
},
{
name = ogonek;
pos = (484,0);
},
{
name = top;
pos = (410,710);
},
{
name = topleft;
pos = (22,710);
}
);
layerId = "9372F035-DA38-4B54-966C-CEBA9B53DD02";
shapes = (
{
closed = 1;
nodes = (
(0,0,o),
(0,0,o),
(0,0,c),
(0,0,l),
(0,0,o),
(0,0,o),
(0,0,cs),
(0,0,o),
(0,0,o),
(0,0,cs),
(0,0,o),
(0,0,o),
(0,0,cs),
(0,0,o),
(0,0,o),
(0,0,c),
(0,0,l),
(0,0,l),
(0,0,l),
(0,0,l),
(0,0,o),
(0,0,o),
(0,0,cs),
(0,0,o),
(0,0,o),
(0,0,cs),
(0,0,o),
(0,0,o),
(0,0,cs),
(0,0,o),
(0,0,o),
(0,0,c),
(0,0,o),
(0,0,o),
(0,0,cs),
(0,0,o),
(0,0,o),
(0,0,cs)
);
},
{
closed = 1;
nodes = (
(0,0,o),
(0,0,o),
(0,0,cs),
(0,0,o),
(0,0,o),
(0,0,cs),
(0,0,o),
(0,0,o),
(0,0,cs),
(0,0,o),
(0,0,o),
(0,0,cs)
);
},
{
closed = 1;
nodes = (
(0,0,o),
(0,0,o),
(0,0,cs),
(0,0,o),
(0,0,o),
(0,0,cs),
(0,0,o),
(0,0,o),
(0,0,cs),
(0,0,o),
(0,0,o),
(0,0,cs)
);
}
);
width = 0;
}
);
metricLeft = O;
unicode = 81;
},
{
glyphname = R;
kernLeft = H;
kernRight = R;
lastChange = "2024-11-13 14:41:55 +0000";
layers = (
{
anchors = (
{
name = bottom;
pos = (401,0);
},
{
name = top;
pos = (313,710);
}
);
layerId = "9372F035-DA38-4B54-966C-CEBA9B53DD02";
shapes = (
{
closed = 1;
nodes = (
(0,0,o),
(0,0,o),
(0,0,c),
(0,0,l),
(0,0,o),
(0,0,o),
(0,0,cs),
(0,0,o),
(0,0,o),
(0,0,cs),
(0,0,o),
(0,0,o),
(0,0,c),
(0,0,l),
(0,0,o),
(0,0,o),
(0,0,cs),
(0,0,o),
(0,0,o),
(0,0,cs),
(0,0,l),
(0,0,l),
(0,0,l),
(0,0,ls),
(0,0,o),
(0,0,o),
(0,0,cs),
(0,0,ls),
(0,0,o),
(0,0,o),
(0,0,cs),
(0,0,l),
(0,0,l),
(0,0,l),
(0,0,l),
(0,0,l),
(0,0,l),
(0,0,ls),
(0,0,o),
(0,0,o),
(0,0,cs),
(0,0,l),
(0,0,ls),
(0,0,o),
(0,0,o),
(0,0,cs),
(0,0,o),
(0,0,o),
(0,0,cs),
(0,0,l),
(0,0,l),
(0,0,ls),
(0,0,o),
(0,0,o),
(0,0,cs),
(0,0,o),
(0,0,o),
(0,0,cs)
);
}
);
width = 0;
}
);
metricLeft = I;
unicode = 82;
},
{
glyphname = S;
kernLeft = S;
kernRight = S;
lastChange = "2024-11-13 14:41:55 +0000";
layers = (
{
anchors = (
{
name = bottom;
pos = (313,0);
},
{
name = top;
pos = (285,710);
}
);
guides = (
{
angle = 90;
pos = (287,121);
}
);
layerId = "9372F035-DA38-4B54-966C-CEBA9B53DD02";
shapes = (
{
closed = 1;
nodes = (
(0,0,o),
(0,0,o),
(0,0,cs),
(0,0,o),
(0,0,o),
(0,0,cs),
(0,0,ls),
(0,0,o),
(0,0,o),
(0,0,cs),
(0,0,o),
(0,0,o),
(0,0,cs),
(0,0,o),
(0,0,o),
(0,0,c),
(0,0,l),
(0,0,l),
(0,0,l),
(0,0,l),
(0,0,o),
(0,0,o),
(0,0,cs),
(0,0,o),
(0,0,o),
(0,0,cs),
(0,0,o),
(0,0,o),
(0,0,cs),
(0,0,o),
(0,0,o),
(0,0,cs),
(0,0,o),
(0,0,o),
(0,0,cs),
(0,0,ls),
(0,0,o),
(0,0,o),
(0,0,cs),
(0,0,o),
(0,0,o),
(0,0,cs),
(0,0,o),
(0,0,o),
(0,0,cs),
(0,0,l),
(0,0,l),
(0,0,l),
(0,0,l),
(0,0,l),
(0,0,ls),
(0,0,o),
(0,0,o),
(0,0,cs),
(0,0,o),
(0,0,o),
(0,0,cs),
(0,0,o),
(0,0,o),
(0,0,cs)
);
}
);
width = 0;
}
);
unicode = 83;
},
{
glyphname = T;
kernLeft = T;
kernRight = T;
lastChange = "2024-11-13 14:41:55 +0000";
layers = (
{
anchors = (
{
name = bottom;
pos = (374,0);
},
{
name = center;
pos = (371,355);
},
{
name = top;
pos = (377,710);
}
);
layerId = "9372F035-DA38-4B54-966C-CEBA9B53DD02";
shapes = (
{
closed = 1;
nodes = (
(0,0,l),
(0,0,l),
(0,0,l),
(0,0,ls),
(0,0,o),
(0,0,o),
(0,0,cs),
(0,0,l),
(0,0,l),
(0,0,ls),
(0,0,o),
(0,0,o),
(0,0,cs),
(0,0,l),
(0,0,l)
);
},
{
closed = 1;
nodes = (
(0,0,l),
(0,0,l),
(0,0,l),
(0,0,l),
(0,0,l),
(0,0,l),
(0,0,l),
(0,0,l),
(0,0,l),
(0,0,o),
(0,0,o),
(0,0,cs),
(0,0,ls),
(0,0,o),
(0,0,o),
(0,0,c)
);
}
);
width = 0;
}
);
unicode = 84;
},
{
glyphname = U;
kernLeft = U;
kernRight = U;
lastChange = "2024-11-13 14:41:55 +0000";
layers = (
{
anchors = (
{
name = bottom;
pos = (403,0);
},
{
name = ogonek;
pos = (519,0);
},
{
name = top;
pos = (409,710);
},
{
name = topright;
pos = (746,710);
}
);
layerId = "9372F035-DA38-4B54-966C-CEBA9B53DD02";
shapes = (
{
closed = 1;
nodes = (
(0,0,o),
(0,0,o),
(0,0,cs),
(0,0,ls),
(0,0,o),
(0,0,o),
(0,0,cs),
(0,0,l),
(0,0,l),
(0,0,l),
(0,0,l),
(0,0,l),
(0,0,ls),
(0,0,o),
(0,0,o),
(0,0,cs),
(0,0,ls),
(0,0,o),
(0,0,o),
(0,0,cs),
(0,0,o),
(0,0,o),
(0,0,cs),
(0,0,ls),
(0,0,o),
(0,0,o),
(0,0,cs),
(0,0,l),
(0,0,l),
(0,0,l),
(0,0,l),
(0,0,l),
(0,0,l),
(0,0,ls),
(0,0,o),
(0,0,o),
(0,0,cs),
(0,0,ls),
(0,0,o),
(0,0,o),
(0,0,cs)
);
}
);
width = 0;
}
);
unicode = 85;
},
{
glyphname = V;
kernLeft = V;
kernRight = V;
lastChange = "2024-11-13 14:41:55 +0000";
layers = (
{
anchors = (
{
name = bottom;
pos = (373,0);
},
{
name = top;
pos = (409,710);
}
);
layerId = "9372F035-DA38-4B54-966C-CEBA9B53DD02";
shapes = (
{
closed = 1;
nodes = (
(0,0,l),
(0,0,ls),
(0,0,o),
(0,0,o),
(0,0,cs),
(0,0,l),
(0,0,l),
(0,0,l),
(0,0,l),
(0,0,l),
(0,0,ls),
(0,0,o),
(0,0,o),
(0,0,cs),
(0,0,o),
(0,0,o),
(0,0,cs),
(0,0,l),
(0,0,l),
(0,0,ls),
(0,0,o),
(0,0,o),
(0,0,cs),
(0,0,o),
(0,0,o),
(0,0,cs),
(0,0,l),
(0,0,l),
(0,0,l),
(0,0,l),
(0,0,l),
(0,0,ls),
(0,0,o),
(0,0,o),
(0,0,cs),
(0,0,l)
);
}
);
width = 0;
}
);
unicode = 86;
},
{
glyphname = W;
kernLeft = V;
kernRight = V;
lastChange = "2024-11-13 14:41:55 +0000";
layers = (
{
anchors = (
{
name = bottom;
pos = (522,0);
},
{
name = top;
pos = (544,710);
}
);
guides = (
{
pos = (259,687);
}
);
layerId = "9372F035-DA38-4B54-966C-CEBA9B53DD02";
shapes = (
{
closed = 1;
nodes = (
(0,0,l),
(0,0,l),
(0,0,l),
(0,0,l),
(0,0,l),
(0,0,ls),
(0,0,o),
(0,0,o),
(0,0,cs),
(0,0,l),
(0,0,l),
(0,0,l),
(0,0,l),
(0,0,l),
(0,0,ls),
(0,0,o),
(0,0,o),
(0,0,cs),
(0,0,o),
(0,0,o),
(0,0,cs),
(0,0,l),
(0,0,l),
(0,0,ls),
(0,0,o),
(0,0,o),
(0,0,cs),
(0,0,o),
(0,0,o),
(0,0,cs),
(0,0,l),
(0,0,l),
(0,0,ls),
(0,0,o),
(0,0,o),
(0,0,c),
(0,0,l),
(0,0,o),
(0,0,o),
(0,0,cs),
(0,0,l),
(0,0,l),
(0,0,ls),
(0,0,o),
(0,0,o),
(0,0,cs),
(0,0,o),
(0,0,o),
(0,0,cs),
(0,0,l),
(0,0,l),
(0,0,ls),
(0,0,o),
(0,0,o),
(0,0,cs),
(0,0,o),
(0,0,o),
(0,0,cs),
(0,0,l),
(0,0,l),
(0,0,l),
(0,0,l),
(0,0,l),
(0,0,ls),
(0,0,o),
(0,0,o),
(0,0,cs),
(0,0,l)
);
}
);
width = 0;
}
);
metricLeft = V;
metricRight = V;
unicode = 87;
},
{
glyphname = X;
kernLeft = X;
kernRight = X;
lastChange = "2024-11-13 14:41:55 +0000";
layers = (
{
anchors = (
{
name = bottom;
pos = (327,0);
},
{
name = top;
pos = (390,710);
}
);
guides = (
{
angle = 90;
pos = (-13,553);
},
{
angle = 90;
pos = (702,554);
}
);
layerId = "9372F035-DA38-4B54-966C-CEBA9B53DD02";
shapes = (
{
closed = 1;
nodes = (
(0,0,l),
(0,0,l),
(0,0,l),
(0,0,ls),
(0,0,o),
(0,0,o),
(0,0,cs),
(0,0,ls),
(0,0,o),
(0,0,o),
(0,0,cs),
(0,0,o),
(0,0,o),
(0,0,cs),
(0,0,l),
(0,0,l),
(0,0,l),
(0,0,l),
(0,0,l),
(0,0,ls),
(0,0,o),
(0,0,o),
(0,0,cs),
(0,0,ls),
(0,0,o),
(0,0,o),
(0,0,cs),
(0,0,o),
(0,0,o),
(0,0,cs),
(0,0,l),
(0,0,l)
);
},
{
closed = 1;
nodes = (
(0,0,l),
(0,0,l),
(0,0,l),
(0,0,ls),
(0,0,o),
(0,0,o),
(0,0,cs),
(0,0,o),
(0,0,o),
(0,0,cs),
(0,0,l),
(0,0,l),
(0,0,ls),
(0,0,o),
(0,0,o),
(0,0,cs),
(0,0,l),
(0,0,l)
);
},
{
closed = 1;
nodes = (
(0,0,ls),
(0,0,o),
(0,0,o),
(0,0,cs),
(0,0,l),
(0,0,l),
(0,0,l),
(0,0,l),
(0,0,l),
(0,0,ls),
(0,0,o),
(0,0,o),
(0,0,cs),
(0,0,o),
(0,0,o),
(0,0,cs),
(0,0,l),
(0,0,l)
);
}
);
width = 0;
}
);
unicode = 88;
},
{
glyphname = Y;
kernLeft = Y;
kernRight = Y;
lastChange = "2024-11-13 14:41:55 +0000";
layers = (
{
anchors = (
{
name = bottom;
pos = (325,0);
},
{
name = top;
pos = (375,710);
},
{
name = topleft;
pos = (-55,710);
}
);
layerId = "9372F035-DA38-4B54-966C-CEBA9B53DD02";
shapes = (
{
closed = 1;
nodes = (
(0,0,l),
(0,0,l),
(0,0,l),
(0,0,l),
(0,0,ls),
(0,0,o),
(0,0,o),
(0,0,cs),
(0,0,l),
(0,0,ls),
(0,0,o),
(0,0,o),
(0,0,cs),
(0,0,l),
(0,0,l),
(0,0,l),
(0,0,l),
(0,0,l),
(0,0,ls),
(0,0,o),
(0,0,o),
(0,0,cs),
(0,0,o),
(0,0,o),
(0,0,cs),
(0,0,l),
(0,0,l),
(0,0,ls),
(0,0,o),
(0,0,o),
(0,0,cs),
(0,0,o),
(0,0,o),
(0,0,cs),
(0,0,l),
(0,0,l),
(0,0,l),
(0,0,l),
(0,0,l),
(0,0,ls),
(0,0,o),
(0,0,o),
(0,0,cs),
(0,0,l),
(0,0,ls),
(0,0,o),
(0,0,o),
(0,0,cs),
(0,0,l),
(0,0,l)
);
}
);
width = 0;
}
);
unicode = 89;
},
{
glyphname = Z;
kernLeft = H;
kernRight = H;
lastChange = "2024-11-13 14:41:55 +0000";
layers = (
{
anchors = (
{
name = bottom;
pos = (309,0);
},
{
name = top;
pos = (309,710);
}
);
layerId = "9372F035-DA38-4B54-966C-CEBA9B53DD02";
shapes = (
{
closed = 1;
nodes = (
(0,0,l),
(0,0,l),
(0,0,l),
(0,0,o),
(0,0,o),
(0,0,cs),
(0,0,l),
(0,0,l),
(0,0,l),
(0,0,l),
(0,0,l),
(0,0,l),
(0,0,l),
(0,0,l),
(0,0,l),
(0,0,o),
(0,0,o),
(0,0,cs),
(0,0,l),
(0,0,l),
(0,0,l),
(0,0,l),
(0,0,l),
(0,0,l)
);
}
);
width = 0;
}
);
unicode = 90;
},
{
glyphname = a;
kernLeft = a;
kernRight = a;
lastChange = "2024-11-13 14:41:55 +0000";
layers = (
{
anchors = (
{
name = bottom;
pos = (169,0);
},
{
name = ogonek;
pos = (459,0);
},
{
name = top;
pos = (241,433);
}
);
layerId = "9372F035-DA38-4B54-966C-CEBA9B53DD02";
shapes = (
{
closed = 1;
nodes = (
(0,0,o),
(0,0,o),
(0,0,c),
(0,0,l),
(0,0,o),
(0,0,o),
(0,0,cs),
(0,0,o),
(0,0,o),
(0,0,cs),
(0,0,ls),
(0,0,o),
(0,0,o),
(0,0,cs),
(0,0,o),
(0,0,o),
(0,0,cs),
(0,0,o),
(0,0,o),
(0,0,cs),
(0,0,o),
(0,0,o),
(0,0,cs),
(0,0,o),
(0,0,o),
(0,0,cs),
(0,0,o),
(0,0,o),
(0,0,cs),
(0,0,o),
(0,0,o),
(0,0,cs),
(0,0,o),
(0,0,o),
(0,0,cs),
(0,0,ls),
(0,0,o),
(0,0,o),
(0,0,cs)
);
},
{
closed = 1;
nodes = (
(0,0,o),
(0,0,o),
(0,0,c),
(0,0,l),
(0,0,o),
(0,0,o),
(0,0,cs),
(0,0,o),
(0,0,o),
(0,0,cs),
(0,0,o),
(0,0,o),
(0,0,c),
(0,0,l),
(0,0,o),
(0,0,o),
(0,0,cs),
(0,0,o),
(0,0,o),
(0,0,cs),
(0,0,o),
(0,0,o),
(0,0,cs)
);
}
);
width = 0;
}
);
unicode = 97;
},
{
glyphname = b;
kernLeft = b;
kernRight = o;
lastChange = "2024-11-13 14:41:55 +0000";
layers = (
{
anchors = (
{
name = bottom;
pos = (274,0);
},
{
name = top;
pos = (299,433);
}
);
layerId = "9372F035-DA38-4B54-966C-CEBA9B53DD02";
shapes = (
{
closed = 1;
nodes = (
(0,0,o),
(0,0,o),
(0,0,cs),
(0,0,o),
(0,0,o),
(0,0,cs),
(0,0,o),
(0,0,o),
(0,0,c),
(0,0,l),
(0,0,o),
(0,0,o),
(0,0,cs),
(0,0,o),
(0,0,o),
(0,0,cs),
(0,0,o),
(0,0,o),
(0,0,cs),
(0,0,o),
(0,0,o),
(0,0,c),
(0,0,l),
(0,0,o),
(0,0,o),
(0,0,cs)
);
},
{
closed = 1;
nodes = (
(0,0,l),
(0,0,l),
(0,0,l),
(0,0,l),
(0,0,l),
(0,0,l)
);
},
{
closed = 1;
nodes = (
(0,0,l),
(0,0,l),
(0,0,o),
(0,0,o),
(0,0,c),
(0,0,l),
(0,0,ls),
(0,0,o),
(0,0,o),
(0,0,c)
);
}
);
width = 0;
}
);
metricRight = o;
unicode = 98;
},
{
glyphname = c;
kernLeft = o;
kernRight = o;
lastChange = "2024-11-13 14:41:55 +0000";
layers = (
{
anchors = (
{
name = bottom;
pos = (260,0);
},
{
name = top;
pos = (262,433);
}
);
layerId = "9372F035-DA38-4B54-966C-CEBA9B53DD02";
shapes = (
{
closed = 1;
nodes = (
(0,0,o),
(0,0,o),
(0,0,c),
(0,0,l),
(0,0,o),
(0,0,o),
(0,0,cs),
(0,0,o),
(0,0,o),
(0,0,cs),
(0,0,o),
(0,0,o),
(0,0,cs),
(0,0,o),
(0,0,o),
(0,0,cs),
(0,0,o),
(0,0,o),
(0,0,cs),
(0,0,o),
(0,0,o),
(0,0,cs),
(0,0,o),
(0,0,o),
(0,0,cs),
(0,0,o),
(0,0,o),
(0,0,cs),
(0,0,o),
(0,0,o),
(0,0,cs),
(0,0,o),
(0,0,o),
(0,0,cs),
(0,0,o),
(0,0,o),
(0,0,cs)
);
}
);
width = 0;
}
);
metricLeft = o;
unicode = 99;
},
{
glyphname = d;
kernLeft = o;
kernRight = l;
lastChange = "2024-11-13 14:41:55 +0000";
layers = (
{
anchors = (
{
name = bottom;
pos = (283,0);
},
{
name = center;
pos = (385,567);
},
{
name = top;
pos = (283,433);
},
{
name = topright;
pos = (485,710);
}
);
layerId = "9372F035-DA38-4B54-966C-CEBA9B53DD02";
shapes = (
{
closed = 1;
nodes = (
(0,0,o),
(0,0,o),
(0,0,c),
(0,0,l),
(0,0,o),
(0,0,o),
(0,0,cs),
(0,0,o),
(0,0,o),
(0,0,cs),
(0,0,o),
(0,0,o),
(0,0,cs),
(0,0,o),
(0,0,o),
(0,0,c),
(0,0,l),
(0,0,o),
(0,0,o),
(0,0,cs),
(0,0,o),
(0,0,o),
(0,0,cs),
(0,0,o),
(0,0,o),
(0,0,cs)
);
},
{
closed = 1;
nodes = (
(0,0,o),
(0,0,o),
(0,0,cs),
(0,0,l),
(0,0,l),
(0,0,o),
(0,0,o),
(0,0,cs),
(0,0,l),
(0,0,l),
(0,0,l),
(0,0,l),
(0,0,l)
);
},
{
closed = 1;
nodes = (
(0,0,l),
(0,0,l),
(0,0,o),
(0,0,o),
(0,0,c),
(0,0,l),
(0,0,ls),
(0,0,o),
(0,0,o),
(0,0,c)
);
}
);
width = 0;
}
);
metricLeft = o;
unicode = 100;
},
{
glyphname = e;
kernLeft = o;
kernRight = o;
lastChange = "2024-11-13 14:41:55 +0000";
layers = (
{
anchors = (
{
name = bottom;
pos = (269,0);
},
{
name = ogonek;
pos = (372,0);
},
{
name = top;
pos = (266,436);
}
);
layerId = "9372F035-DA38-4B54-966C-CEBA9B53DD02";
shapes = (
{
closed = 1;
nodes = (
(0,0,o),
(0,0,o),
(0,0,c),
(0,0,l),
(0,0,o),
(0,0,o),
(0,0,cs),
(0,0,o),
(0,0,o),
(0,0,cs),
(0,0,o),
(0,0,o),
(0,0,cs),
(0,0,o),
(0,0,o),
(0,0,cs),
(0,0,o),
(0,0,o),
(0,0,cs),
(0,0,l),
(0,0,l),
(0,0,l),
(0,0,o),
(0,0,o),
(0,0,cs),
(0,0,o),
(0,0,o),
(0,0,cs),
(0,0,o),
(0,0,o),
(0,0,cs),
(0,0,o),
(0,0,o),
(0,0,cs)
);
}
);
width = 0;
}
);
metricLeft = o;
unicode = 101;
},
{
glyphname = f;
kernLeft = l;
kernRight = f;
lastChange = "2024-11-13 14:41:55 +0000";
layers = (
{
layerId = "9372F035-DA38-4B54-966C-CEBA9B53DD02";
shapes = (
{
closed = 1;
nodes = (
(0,0,l),
(0,0,l),
(0,0,l),
(0,0,ls),
(0,0,o),
(0,0,o),
(0,0,cs),
(0,0,ls),
(0,0,o),
(0,0,o),
(0,0,cs),
(0,0,o),
(0,0,o),
(0,0,cs),
(0,0,o),
(0,0,o),
(0,0,cs),
(0,0,o),
(0,0,o),
(0,0,cs),
(0,0,o),
(0,0,o),
(0,0,cs),
(0,0,o),
(0,0,o),
(0,0,cs),
(0,0,o),
(0,0,o),
(0,0,cs),
(0,0,o),
(0,0,o),
(0,0,cs),
(0,0,ls),
(0,0,o),
(0,0,o),
(0,0,cs),
(0,0,l),
(0,0,l)
);
},
{
closed = 1;
nodes = (
(0,0,l),
(0,0,l),
(0,0,l),
(0,0,l)
);
},
{
closed = 1;
nodes = (
(0,0,l),
(0,0,l),
(0,0,l),
(0,0,l)
);
}
);
width = 0;
}
);
unicode = 102;
},
{
glyphname = g;
kernLeft = g;
kernRight = g;
lastChange = "2024-11-13 14:41:55 +0000";
layers = (
{
anchors = (
{
name = top;
pos = (251,436);
}
);
guides = (
{
angle = 90;
pos = (252,323);
}
);
layerId = "9372F035-DA38-4B54-966C-CEBA9B53DD02";
shapes = (
{
closed = 1;
nodes = (
(0,0,o),
(0,0,o),
(0,0,cs),
(0,0,o),
(0,0,o),
(0,0,cs),
(0,0,ls),
(0,0,o),
(0,0,o),
(0,0,cs),
(0,0,o),
(0,0,o),
(0,0,c),
(0,0,l),
(0,0,o),
(0,0,o),
(0,0,cs),
(0,0,o),
(0,0,o),
(0,0,cs),
(0,0,ls),
(0,0,o),
(0,0,o),
(0,0,cs),
(0,0,o),
(0,0,o),
(0,0,cs),
(0,0,o),
(0,0,o),
(0,0,cs),
(0,0,o),
(0,0,o),
(0,0,cs),
(0,0,o),
(0,0,o),
(0,0,cs),
(0,0,o),
(0,0,o),
(0,0,cs),
(0,0,o),
(0,0,o),
(0,0,cs)
);
},
{
closed = 1;
nodes = (
(0,0,o),
(0,0,o),
(0,0,cs),
(0,0,o),
(0,0,o),
(0,0,cs),
(0,0,o),
(0,0,o),
(0,0,cs),
(0,0,o),
(0,0,o),
(0,0,cs)
);
},
{
closed = 1;
nodes = (
(0,0,o),
(0,0,o),
(0,0,cs),
(0,0,o),
(0,0,o),
(0,0,cs),
(0,0,o),
(0,0,o),
(0,0,cs),
(0,0,o),
(0,0,o),
(0,0,cs)
);
},
{
closed = 1;
nodes = (
(0,0,o),
(0,0,o),
(0,0,cs),
(0,0,o),
(0,0,o),
(0,0,cs),
(0,0,o),
(0,0,o),
(0,0,c),
(0,0,l),
(0,0,o),
(0,0,o),
(0,0,cs),
(0,0,o),
(0,0,o),
(0,0,cs),
(0,0,o),
(0,0,o),
(0,0,cs)
);
}
);
width = 0;
}
);
unicode = 103;
},
{
glyphname = h;
kernLeft = l;
kernRight = n;
lastChange = "2024-11-13 14:41:55 +0000";
layers = (
{
anchors = (
{
name = bottom;
pos = (289,0);
},
{
name = center;
pos = (142,567);
},
{
name = top;
pos = (341,710);
}
);
layerId = "9372F035-DA38-4B54-966C-CEBA9B53DD02";
shapes = (
{
closed = 1;
nodes = (
(0,0,l),
(0,0,l),
(0,0,l),
(0,0,ls),
(0,0,o),
(0,0,o),
(0,0,cs),
(0,0,l),
(0,0,l),
(0,0,ls),
(0,0,o),
(0,0,o),
(0,0,cs),
(0,0,l),
(0,0,l)
);
},
{
closed = 1;
nodes = (
(0,0,l),
(0,0,l),
(0,0,l),
(0,0,ls),
(0,0,o),
(0,0,o),
(0,0,cs),
(0,0,ls),
(0,0,o),
(0,0,o),
(0,0,cs),
(0,0,o),
(0,0,o),
(0,0,c),
(0,0,l),
(0,0,o),
(0,0,o),
(0,0,cs),
(0,0,o),
(0,0,o),
(0,0,cs),
(0,0,ls),
(0,0,o),
(0,0,o),
(0,0,cs),
(0,0,l),
(0,0,l)
);
},
{
closed = 1;
nodes = (
(0,0,l),
(0,0,l),
(0,0,o),
(0,0,o),
(0,0,c),
(0,0,l),
(0,0,ls),
(0,0,o),
(0,0,o),
(0,0,c)
);
}
);
width = 0;
}
);
metricLeft = l;
metricRight = n;
unicode = 104;
},
{
glyphname = i;
kernLeft = n;
kernRight = u;
lastChange = "2024-11-13 14:41:55 +0000";
layers = (
{
anchors = (
{
name = bottom;
pos = (149,0);
},
{
name = ogonek;
pos = (172,0);
},
{
name = top;
pos = (142,436);
}
);
hints = (
{
horizontal = 1;
place = (-3,24);
type = Stem;
},
{
origin = (0,9);
target = (0,6);
type = Stem;
}
);
layerId = "9372F035-DA38-4B54-966C-CEBA9B53DD02";
shapes = (
{
closed = 1;
nodes = (
(0,0,l),
(0,0,l),
(0,0,l),
(0,0,ls),
(0,0,o),
(0,0,o),
(0,0,cs),
(0,0,l),
(0,0,l),
(0,0,ls),
(0,0,o),
(0,0,o),
(0,0,cs),
(0,0,l),
(0,0,l)
);
},
{
closed = 1;
nodes = (
(0,0,l),
(0,0,l),
(0,0,o),
(0,0,o),
(0,0,c),
(0,0,l),
(0,0,ls),
(0,0,o),
(0,0,o),
(0,0,c)
);
},
{
closed = 1;
nodes = (
(0,0,o),
(0,0,o),
(0,0,cs),
(0,0,o),
(0,0,o),
(0,0,cs),
(0,0,o),
(0,0,o),
(0,0,cs),
(0,0,o),
(0,0,o),
(0,0,cs)
);
}
);
width = 0;
}
);
metricLeft = n;
unicode = 105;
},
{
glyphname = j;
kernLeft = n;
kernRight = u;
lastChange = "2024-11-13 14:41:55 +0000";
layers = (
{
anchors = (
{
name = top;
pos = (134,651);
}
);
layerId = "9372F035-DA38-4B54-966C-CEBA9B53DD02";
shapes = (
{
closed = 1;
nodes = (
(0,0,o),
(0,0,o),
(0,0,cs),
(0,0,o),
(0,0,o),
(0,0,cs),
(0,0,o),
(0,0,o),
(0,0,cs),
(0,0,o),
(0,0,o),
(0,0,cs)
);
},
{
closed = 1;
nodes = (
(0,0,o),
(0,0,o),
(0,0,cs),
(0,0,l),
(0,0,o),
(0,0,o),
(0,0,c),
(0,0,l),
(0,0,o),
(0,0,o),
(0,0,cs),
(0,0,ls),
(0,0,o),
(0,0,o),
(0,0,cs),
(0,0,o),
(0,0,o),
(0,0,cs),
(0,0,o),
(0,0,o),
(0,0,cs),
(0,0,o),
(0,0,o),
(0,0,cs),
(0,0,o),
(0,0,o),
(0,0,cs),
(0,0,o),
(0,0,o),
(0,0,cs),
(0,0,o),
(0,0,o),
(0,0,cs)
);
}
);
width = 0;
}
);
unicode = 106;
},
{
glyphname = k;
kernLeft = l;
kernRight = k;
lastChange = "2024-11-13 14:41:55 +0000";
layers = (
{
anchors = (
{
name = bottom;
pos = (322,0);
},
{
name = top;
pos = (250,436);
}
);
layerId = "9372F035-DA38-4B54-966C-CEBA9B53DD02";
shapes = (
{
closed = 1;
nodes = (
(0,0,l),
(0,0,l),
(0,0,l),
(0,0,ls),
(0,0,o),
(0,0,o),
(0,0,cs),
(0,0,l),
(0,0,l),
(0,0,ls),
(0,0,o),
(0,0,o),
(0,0,cs),
(0,0,l),
(0,0,l)
);
},
{
closed = 1;
nodes = (
(0,0,l),
(0,0,l),
(0,0,o),
(0,0,o),
(0,0,cs),
(0,0,l),
(0,0,l),
(0,0,l),
(0,0,l)
);
},
{
closed = 1;
nodes = (
(0,0,ls),
(0,0,o),
(0,0,o),
(0,0,cs),
(0,0,l),
(0,0,l),
(0,0,l),
(0,0,l),
(0,0,l),
(0,0,ls),
(0,0,o),
(0,0,o),
(0,0,cs),
(0,0,o),
(0,0,o),
(0,0,cs),
(0,0,l),
(0,0,l)
);
},
{
closed = 1;
nodes = (
(0,0,l),
(0,0,l),
(0,0,o),
(0,0,o),
(0,0,c),
(0,0,l),
(0,0,ls),
(0,0,o),
(0,0,o),
(0,0,c)
);
}
);
width = 0;
}
);
metricLeft = l;
unicode = 107;
},
{
glyphname = l;
kernLeft = l;
kernRight = l;
lastChange = "2024-11-13 14:41:55 +0000";
layers = (
{
anchors = (
{
name = bottom;
pos = (135,0);
},
{
name = center;
pos = (135,386);
},
{
name = top;
pos = (137,710);
},
{
name = topright;
pos = (212,710);
}
);
layerId = "9372F035-DA38-4B54-966C-CEBA9B53DD02";
shapes = (
{
closed = 1;
nodes = (
(0,0,l),
(0,0,l),
(0,0,l),
(0,0,ls),
(0,0,o),
(0,0,o),
(0,0,cs),
(0,0,l),
(0,0,l),
(0,0,ls),
(0,0,o),
(0,0,o),
(0,0,cs),
(0,0,l),
(0,0,l)
);
},
{
closed = 1;
nodes = (
(0,0,l),
(0,0,l),
(0,0,o),
(0,0,o),
(0,0,c),
(0,0,l),
(0,0,ls),
(0,0,o),
(0,0,o),
(0,0,c)
);
}
);
width = 0;
}
);
unicode = 108;
},
{
glyphname = m;
kernLeft = n;
kernRight = n;
lastChange = "2024-11-13 14:41:55 +0000";
layers = (
{
anchors = (
{
name = top;
pos = (486,436);
}
);
layerId = "9372F035-DA38-4B54-966C-CEBA9B53DD02";
shapes = (
{
closed = 1;
nodes = (
(0,0,l),
(0,0,l),
(0,0,l),
(0,0,ls),
(0,0,o),
(0,0,o),
(0,0,cs),
(0,0,ls),
(0,0,o),
(0,0,o),
(0,0,cs),
(0,0,o),
(0,0,o),
(0,0,c),
(0,0,l),
(0,0,o),
(0,0,o),
(0,0,cs),
(0,0,o),
(0,0,o),
(0,0,cs),
(0,0,ls),
(0,0,o),
(0,0,o),
(0,0,cs),
(0,0,l),
(0,0,l)
);
},
{
closed = 1;
nodes = (
(0,0,l),
(0,0,l),
(0,0,l),
(0,0,ls),
(0,0,o),
(0,0,o),
(0,0,cs),
(0,0,l),
(0,0,l),
(0,0,ls),
(0,0,o),
(0,0,o),
(0,0,cs),
(0,0,l),
(0,0,l)
);
},
{
closed = 1;
nodes = (
(0,0,l),
(0,0,l),
(0,0,o),
(0,0,o),
(0,0,c),
(0,0,l),
(0,0,o),
(0,0,o),
(0,0,c)
);
},
{
closed = 1;
nodes = (
(0,0,l),
(0,0,l),
(0,0,l),
(0,0,ls),
(0,0,o),
(0,0,o),
(0,0,cs),
(0,0,ls),
(0,0,o),
(0,0,o),
(0,0,cs),
(0,0,o),
(0,0,o),
(0,0,c),
(0,0,l),
(0,0,o),
(0,0,o),
(0,0,cs),
(0,0,o),
(0,0,o),
(0,0,cs),
(0,0,ls),
(0,0,o),
(0,0,o),
(0,0,cs),
(0,0,l),
(0,0,l)
);
}
);
width = 0;
}
);
metricLeft = n;
metricRight = n;
unicode = 109;
},
{
glyphname = n;
kernLeft = n;
kernRight = n;
lastChange = "2024-11-13 14:41:55 +0000";
layers = (
{
anchors = (
{
name = bottom;
pos = (301,0);
},
{
name = top;
pos = (301,436);
}
);
layerId = "9372F035-DA38-4B54-966C-CEBA9B53DD02";
shapes = (
{
closed = 1;
nodes = (
(0,0,l),
(0,0,l),
(0,0,l),
(0,0,ls),
(0,0,o),
(0,0,o),
(0,0,cs),
(0,0,l),
(0,0,l),
(0,0,ls),
(0,0,o),
(0,0,o),
(0,0,cs),
(0,0,l),
(0,0,l)
);
},
{
closed = 1;
nodes = (
(0,0,l),
(0,0,l),
(0,0,o),
(0,0,o),
(0,0,c),
(0,0,l),
(0,0,ls),
(0,0,o),
(0,0,o),
(0,0,c)
);
},
{
closed = 1;
nodes = (
(0,0,l),
(0,0,l),
(0,0,l),
(0,0,ls),
(0,0,o),
(0,0,o),
(0,0,cs),
(0,0,ls),
(0,0,o),
(0,0,o),
(0,0,cs),
(0,0,o),
(0,0,o),
(0,0,c),
(0,0,l),
(0,0,o),
(0,0,o),
(0,0,cs),
(0,0,o),
(0,0,o),
(0,0,cs),
(0,0,ls),
(0,0,o),
(0,0,o),
(0,0,cs),
(0,0,l),
(0,0,l)
);
}
);
width = 0;
}
);
unicode = 110;
},
{
glyphname = o;
kernLeft = o;
kernRight = o;
lastChange = "2024-11-13 14:41:55 +0000";
layers = (
{
anchors = (
{
name = bottom;
pos = (275,0);
},
{
name = center;
pos = (275,218);
},
{
name = ogonek;
pos = (494,10);
},
{
name = top;
pos = (275,429);
}
);
guides = (
{
pos = (275,221);
},
{
angle = 90;
pos = (275,221);
}
);
layerId = "9372F035-DA38-4B54-966C-CEBA9B53DD02";
shapes = (
{
closed = 1;
nodes = (
(0,0,o),
(0,0,o),
(0,0,cs),
(0,0,o),
(0,0,o),
(0,0,cs),
(0,0,o),
(0,0,o),
(0,0,cs),
(0,0,o),
(0,0,o),
(0,0,cs)
);
},
{
closed = 1;
nodes = (
(0,0,o),
(0,0,o),
(0,0,cs),
(0,0,o),
(0,0,o),
(0,0,cs),
(0,0,o),
(0,0,o),
(0,0,cs),
(0,0,o),
(0,0,o),
(0,0,cs)
);
}
);
width = 0;
}
);
unicode = 111;
},
{
glyphname = p;
kernLeft = p;
kernRight = o;
lastChange = "2024-11-13 14:41:55 +0000";
layers = (
{
anchors = (
{
name = bottom;
pos = (275,0);
},
{
name = top;
pos = (275,436);
}
);
layerId = "9372F035-DA38-4B54-966C-CEBA9B53DD02";
shapes = (
{
closed = 1;
nodes = (
(0,0,l),
(0,0,l),
(0,0,l),
(0,0,ls),
(0,0,o),
(0,0,o),
(0,0,cs),
(0,0,l),
(0,0,l),
(0,0,l),
(0,0,o),
(0,0,o),
(0,0,c),
(0,0,l),
(0,0,o),
(0,0,o),
(0,0,cs),
(0,0,ls),
(0,0,o),
(0,0,o),
(0,0,cs),
(0,0,l),
(0,0,l)
);
},
{
closed = 1;
nodes = (
(0,0,o),
(0,0,o),
(0,0,cs),
(0,0,o),
(0,0,o),
(0,0,cs),
(0,0,o),
(0,0,o),
(0,0,c),
(0,0,l),
(0,0,o),
(0,0,o),
(0,0,cs),
(0,0,o),
(0,0,o),
(0,0,cs),
(0,0,o),
(0,0,o),
(0,0,cs),
(0,0,o),
(0,0,o),
(0,0,c),
(0,0,l),
(0,0,o),
(0,0,o),
(0,0,cs)
);
}
);
width = 0;
}
);
metricLeft = "=n-10";
metricRight = o;
unicode = 112;
},
{
glyphname = q;
kernLeft = o;
kernRight = n;
lastChange = "2024-11-13 14:41:55 +0000";
layers = (
{
anchors = (
{
name = bottom;
pos = (277,0);
},
{
name = top;
pos = (277,436);
}
);
layerId = "9372F035-DA38-4B54-966C-CEBA9B53DD02";
shapes = (
{
closed = 1;
nodes = (
(0,0,l),
(0,0,l),
(0,0,l),
(0,0,ls),
(0,0,o),
(0,0,o),
(0,0,cs),
(0,0,l),
(0,0,l),
(0,0,l),
(0,0,l),
(0,0,ls),
(0,0,o),
(0,0,o),
(0,0,cs),
(0,0,l),
(0,0,l)
);
},
{
closed = 1;
nodes = (
(0,0,o),
(0,0,o),
(0,0,c),
(0,0,l),
(0,0,o),
(0,0,o),
(0,0,cs),
(0,0,o),
(0,0,o),
(0,0,cs),
(0,0,o),
(0,0,o),
(0,0,cs),
(0,0,o),
(0,0,o),
(0,0,c),
(0,0,l),
(0,0,o),
(0,0,o),
(0,0,cs),
(0,0,o),
(0,0,o),
(0,0,cs),
(0,0,o),
(0,0,o),
(0,0,cs)
);
}
);
width = 0;
}
);
metricLeft = o;
unicode = 113;
},
{
glyphname = r;
kernLeft = n;
kernRight = r;
lastChange = "2024-11-13 14:41:55 +0000";
layers = (
{
anchors = (
{
name = bottom;
pos = (149,0);
},
{
name = top;
pos = (189,436);
}
);
layerId = "9372F035-DA38-4B54-966C-CEBA9B53DD02";
shapes = (
{
closed = 1;
nodes = (
(0,0,l),
(0,0,l),
(0,0,l),
(0,0,ls),
(0,0,o),
(0,0,o),
(0,0,cs),
(0,0,l),
(0,0,o),
(0,0,o),
(0,0,cs),
(0,0,o),
(0,0,o),
(0,0,cs),
(0,0,o),
(0,0,o),
(0,0,cs),
(0,0,o),
(0,0,o),
(0,0,cs),
(0,0,o),
(0,0,o),
(0,0,cs),
(0,0,o),
(0,0,o),
(0,0,cs),
(0,0,o),
(0,0,o),
(0,0,cs),
(0,0,o),
(0,0,o),
(0,0,c),
(0,0,l),
(0,0,l),
(0,0,ls),
(0,0,o),
(0,0,o),
(0,0,cs),
(0,0,l),
(0,0,l)
);
},
{
closed = 1;
nodes = (
(0,0,l),
(0,0,l),
(0,0,o),
(0,0,o),
(0,0,c),
(0,0,l),
(0,0,o),
(0,0,o),
(0,0,c)
);
}
);
width = 0;
}
);
metricLeft = n;
unicode = 114;
},
{
glyphname = s;
kernLeft = s;
kernRight = s;
lastChange = "2024-11-13 14:41:55 +0000";
layers = (
{
anchors = (
{
name = bottom;
pos = (206,3);
},
{
name = top;
pos = (203,433);
}
);
layerId = "9372F035-DA38-4B54-966C-CEBA9B53DD02";
shapes = (
{
closed = 1;
nodes = (
(0,0,o),
(0,0,o),
(0,0,cs),
(0,0,o),
(0,0,o),
(0,0,cs),
(0,0,ls),
(0,0,o),
(0,0,o),
(0,0,cs),
(0,0,o),
(0,0,o),
(0,0,cs),
(0,0,o),
(0,0,o),
(0,0,c),
(0,0,l),
(0,0,l),
(0,0,l),
(0,0,l),
(0,0,o),
(0,0,o),
(0,0,cs),
(0,0,o),
(0,0,o),
(0,0,cs),
(0,0,o),
(0,0,o),
(0,0,cs),
(0,0,o),
(0,0,o),
(0,0,cs),
(0,0,o),
(0,0,o),
(0,0,cs),
(0,0,ls),
(0,0,o),
(0,0,o),
(0,0,cs),
(0,0,o),
(0,0,o),
(0,0,cs),
(0,0,o),
(0,0,o),
(0,0,cs),
(0,0,l),
(0,0,l),
(0,0,l),
(0,0,l),
(0,0,l),
(0,0,o),
(0,0,o),
(0,0,cs),
(0,0,o),
(0,0,o),
(0,0,c),
(0,0,o),
(0,0,o),
(0,0,cs)
);
}
);
width = 0;
}
);
unicode = 115;
},
{
glyphname = germandbls;
kernLeft = l;
kernRight = B;
lastChange = "2024-11-13 14:41:55 +0000";
layers = (
{
layerId = "9372F035-DA38-4B54-966C-CEBA9B53DD02";
shapes = (
{
closed = 1;
nodes = (
(0,0,o),
(0,0,o),
(0,0,cs),
(0,0,o),
(0,0,o),
(0,0,cs),
(0,0,o),
(0,0,o),
(0,0,cs),
(0,0,o),
(0,0,o),
(0,0,cs),
(0,0,o),
(0,0,o),
(0,0,cs),
(0,0,o),
(0,0,o),
(0,0,cs),
(0,0,o),
(0,0,o),
(0,0,cs),
(0,0,ls),
(0,0,o),
(0,0,o),
(0,0,cs),
(0,0,l),
(0,0,l),
(0,0,l),
(0,0,l),
(0,0,o),
(0,0,o),
(0,0,cs),
(0,0,ls),
(0,0,o),
(0,0,o),
(0,0,cs),
(0,0,o),
(0,0,o),
(0,0,cs),
(0,0,o),
(0,0,o),
(0,0,cs),
(0,0,o),
(0,0,o),
(0,0,cs),
(0,0,o),
(0,0,o),
(0,0,cs),
(0,0,o),
(0,0,o),
(0,0,cs),
(0,0,o),
(0,0,o),
(0,0,cs),
(0,0,o),
(0,0,o),
(0,0,cs),
(0,0,o),
(0,0,o),
(0,0,c),
(0,0,o),
(0,0,o),
(0,0,cs),
(0,0,o),
(0,0,o),
(0,0,cs),
(0,0,o),
(0,0,o),
(0,0,cs),
(0,0,o),
(0,0,o),
(0,0,cs)
);
},
{
closed = 1;
nodes = (
(0,0,l),
(0,0,l),
(0,0,l),
(0,0,l)
);
}
);
width = 0;
}
);
metricLeft = f;
unicode = 223;
},
{
glyphname = t;
kernLeft = t;
kernRight = t;
lastChange = "2024-11-13 14:41:55 +0000";
layers = (
{
anchors = (
{
name = bottom;
pos = (198,0);
},
{
name = center;
pos = (168,306);
},
{
name = top;
pos = (157,521);
},
{
name = topright;
pos = (231,689);
}
);
layerId = "9372F035-DA38-4B54-966C-CEBA9B53DD02";
shapes = (
{
closed = 1;
nodes = (
(0,0,o),
(0,0,o),
(0,0,cs),
(0,0,o),
(0,0,o),
(0,0,c),
(0,0,l),
(0,0,o),
(0,0,o),
(0,0,cs),
(0,0,o),
(0,0,o),
(0,0,cs),
(0,0,l),
(0,0,l),
(0,0,l),
(0,0,l),
(0,0,l),
(0,0,l),
(0,0,o),
(0,0,o),
(0,0,cs),
(0,0,l),
(0,0,l),
(0,0,l),
(0,0,ls),
(0,0,o),
(0,0,o),
(0,0,cs)
);
}
);
width = 0;
}
);
unicode = 116;
},
{
glyphname = u;
kernLeft = u;
kernRight = n;
lastChange = "2024-11-13 14:41:55 +0000";
layers = (
{
anchors = (
{
name = bottom;
pos = (237,0);
},
{
name = ogonek;
pos = (430,0);
},
{
name = top;
pos = (260,434);
}
);
guides = (
{
angle = 90;
pos = (395,301);
}
);
layerId = "9372F035-DA38-4B54-966C-CEBA9B53DD02";
shapes = (
{
closed = 1;
nodes = (
(0,0,o),
(0,0,o),
(0,0,cs),
(0,0,o),
(0,0,o),
(0,0,c),
(0,0,l),
(0,0,o),
(0,0,o),
(0,0,cs),
(0,0,o),
(0,0,o),
(0,0,cs),
(0,0,l),
(0,0,l),
(0,0,l),
(0,0,l),
(0,0,ls),
(0,0,o),
(0,0,o),
(0,0,cs),
(0,0,ls),
(0,0,o),
(0,0,o),
(0,0,cs)
);
},
{
closed = 1;
nodes = (
(0,0,o),
(0,0,o),
(0,0,c),
(0,0,l),
(0,0,o),
(0,0,o),
(0,0,cs),
(0,0,l),
(0,0,l),
(0,0,l),
(0,0,l),
(0,0,ls),
(0,0,o),
(0,0,o),
(0,0,cs),
(0,0,l)
);
}
);
width = 0;
}
);
metricRight = i;
note = u;
unicode = 117;
},
{
glyphname = v;
kernLeft = v;
kernRight = v;
lastChange = "2024-11-13 14:41:55 +0000";
layers = (
{
anchors = (
{
name = bottom;
pos = (261,0);
},
{
name = top;
pos = (271,436);
}
);
layerId = "9372F035-DA38-4B54-966C-CEBA9B53DD02";
shapes = (
{
closed = 1;
nodes = (
(0,0,l),
(0,0,ls),
(0,0,o),
(0,0,o),
(0,0,cs),
(0,0,l),
(0,0,l),
(0,0,l),
(0,0,l),
(0,0,l),
(0,0,ls),
(0,0,o),
(0,0,o),
(0,0,cs),
(0,0,o),
(0,0,o),
(0,0,cs),
(0,0,l),
(0,0,ls),
(0,0,o),
(0,0,o),
(0,0,cs),
(0,0,o),
(0,0,o),
(0,0,cs),
(0,0,l),
(0,0,l),
(0,0,l),
(0,0,l),
(0,0,l),
(0,0,ls),
(0,0,o),
(0,0,o),
(0,0,cs),
(0,0,l)
);
}
);
width = 0;
}
);
unicode = 118;
},
{
glyphname = w;
kernLeft = v;
kernRight = v;
lastChange = "2024-11-13 14:41:55 +0000";
layers = (
{
anchors = (
{
name = bottom;
pos = (368,0);
},
{
name = top;
pos = (368,436);
}
);
layerId = "9372F035-DA38-4B54-966C-CEBA9B53DD02";
shapes = (
{
closed = 1;
nodes = (
(0,0,l),
(0,0,l),
(0,0,l),
(0,0,l),
(0,0,l),
(0,0,ls),
(0,0,o),
(0,0,o),
(0,0,cs),
(0,0,l),
(0,0,l),
(0,0,l),
(0,0,l),
(0,0,l),
(0,0,ls),
(0,0,o),
(0,0,o),
(0,0,cs),
(0,0,o),
(0,0,o),
(0,0,cs),
(0,0,l),
(0,0,l),
(0,0,ls),
(0,0,o),
(0,0,o),
(0,0,cs),
(0,0,o),
(0,0,o),
(0,0,cs),
(0,0,l),
(0,0,l),
(0,0,ls),
(0,0,o),
(0,0,o),
(0,0,c),
(0,0,l),
(0,0,o),
(0,0,o),
(0,0,cs),
(0,0,l),
(0,0,l),
(0,0,ls),
(0,0,o),
(0,0,o),
(0,0,cs),
(0,0,o),
(0,0,o),
(0,0,cs),
(0,0,l),
(0,0,l),
(0,0,ls),
(0,0,o),
(0,0,o),
(0,0,cs),
(0,0,o),
(0,0,o),
(0,0,cs),
(0,0,l),
(0,0,l),
(0,0,l),
(0,0,l),
(0,0,l),
(0,0,ls),
(0,0,o),
(0,0,o),
(0,0,cs),
(0,0,l)
);
}
);
width = 0;
}
);
metricLeft = v;
metricRight = v;
unicode = 119;
},
{
glyphname = x;
kernLeft = x;
kernRight = x;
lastChange = "2024-11-13 14:41:55 +0000";
layers = (
{
layerId = "9372F035-DA38-4B54-966C-CEBA9B53DD02";
shapes = (
{
closed = 1;
nodes = (
(0,0,l),
(0,0,l),
(0,0,l),
(0,0,ls),
(0,0,o),
(0,0,o),
(0,0,cs),
(0,0,ls),
(0,0,o),
(0,0,o),
(0,0,cs),
(0,0,o),
(0,0,o),
(0,0,cs),
(0,0,l),
(0,0,l),
(0,0,l),
(0,0,l),
(0,0,l),
(0,0,ls),
(0,0,o),
(0,0,o),
(0,0,cs),
(0,0,ls),
(0,0,o),
(0,0,o),
(0,0,cs),
(0,0,o),
(0,0,o),
(0,0,cs),
(0,0,l),
(0,0,l)
);
},
{
closed = 1;
nodes = (
(0,0,l),
(0,0,l),
(0,0,l),
(0,0,ls),
(0,0,o),
(0,0,o),
(0,0,cs),
(0,0,o),
(0,0,o),
(0,0,cs),
(0,0,l),
(0,0,l),
(0,0,ls),
(0,0,o),
(0,0,o),
(0,0,cs),
(0,0,l),
(0,0,l)
);
},
{
closed = 1;
nodes = (
(0,0,ls),
(0,0,o),
(0,0,o),
(0,0,cs),
(0,0,l),
(0,0,l),
(0,0,l),
(0,0,l),
(0,0,l),
(0,0,ls),
(0,0,o),
(0,0,o),
(0,0,cs),
(0,0,o),
(0,0,o),
(0,0,cs),
(0,0,l),
(0,0,l)
);
}
);
width = 0;
}
);
unicode = 120;
},
{
glyphname = y;
kernLeft = v;
kernRight = y;
lastChange = "2024-11-13 14:41:55 +0000";
layers = (
{
anchors = (
{
name = bottom;
pos = (277,0);
},
{
name = top;
pos = (275,436);
}
);
layerId = "9372F035-DA38-4B54-966C-CEBA9B53DD02";
shapes = (
{
closed = 1;
nodes = (
(0,0,o),
(0,0,o),
(0,0,cs),
(0,0,ls),
(0,0,o),
(0,0,o),
(0,0,cs),
(0,0,l),
(0,0,l),
(0,0,l),
(0,0,l),
(0,0,l),
(0,0,ls),
(0,0,o),
(0,0,o),
(0,0,cs),
(0,0,o),
(0,0,o),
(0,0,cs),
(0,0,ls),
(0,0,o),
(0,0,o),
(0,0,cs),
(0,0,o),
(0,0,o),
(0,0,cs),
(0,0,o),
(0,0,o),
(0,0,cs),
(0,0,o),
(0,0,o),
(0,0,cs),
(0,0,o),
(0,0,o),
(0,0,cs)
);
},
{
closed = 1;
nodes = (
(0,0,l),
(0,0,ls),
(0,0,o),
(0,0,o),
(0,0,cs),
(0,0,o),
(0,0,o),
(0,0,cs),
(0,0,l),
(0,0,l),
(0,0,l),
(0,0,l),
(0,0,l),
(0,0,ls),
(0,0,o),
(0,0,o),
(0,0,cs),
(0,0,l)
);
}
);
width = 0;
}
);
metricRight = v;
unicode = 121;
},
{
glyphname = z;
kernLeft = z;
kernRight = z;
lastChange = "2024-11-13 14:41:55 +0000";
layers = (
{
anchors = (
{
name = bottom;
pos = (243,0);
},
{
name = top;
pos = (243,436);
}
);
layerId = "9372F035-DA38-4B54-966C-CEBA9B53DD02";
shapes = (
{
closed = 1;
nodes = (
(0,0,l),
(0,0,l),
(0,0,l),
(0,0,l),
(0,0,o),
(0,0,o),
(0,0,cs),
(0,0,l),
(0,0,l),
(0,0,l),
(0,0,l),
(0,0,l),
(0,0,l),
(0,0,l),
(0,0,o),
(0,0,o),
(0,0,cs),
(0,0,l),
(0,0,l),
(0,0,l),
(0,0,l)
);
}
);
width = 0;
}
);
unicode = 122;
},
{
glyphname = period;
kernLeft = period;
kernRight = period;
lastChange = "2024-11-13 14:41:55 +0000";
layers = (
{
layerId = "9372F035-DA38-4B54-966C-CEBA9B53DD02";
shapes = (
{
closed = 1;
nodes = (
(0,0,o),
(0,0,o),
(0,0,cs),
(0,0,o),
(0,0,o),
(0,0,cs),
(0,0,o),
(0,0,o),
(0,0,cs),
(0,0,o),
(0,0,o),
(0,0,cs)
);
}
);
width = 0;
}
);
unicode = 46;
},
{
glyphname = comma;
kernLeft = period;
kernRight = period;
lastChange = "2024-11-13 14:41:55 +0000";
layers = (
{
layerId = "9372F035-DA38-4B54-966C-CEBA9B53DD02";
shapes = (
{
closed = 1;
nodes = (
(0,0,o),
(0,0,o),
(0,0,cs),
(0,0,o),
(0,0,o),
(0,0,cs),
(0,0,o),
(0,0,o),
(0,0,cs),
(0,0,o),
(0,0,o),
(0,0,cs),
(0,0,o),
(0,0,o),
(0,0,cs),
(0,0,o),
(0,0,o),
(0,0,cs),
(0,0,o),
(0,0,o),
(0,0,c),
(0,0,l),
(0,0,o),
(0,0,o),
(0,0,cs),
(0,0,o),
(0,0,o),
(0,0,c),
(0,0,l)
);
}
);
visible = 1;
width = 0;
}
);
unicode = 44;
},
{
glyphname = colon;
lastChange = "2024-11-13 14:41:55 +0000";
layers = (
{
layerId = "9372F035-DA38-4B54-966C-CEBA9B53DD02";
shapes = (
{
closed = 1;
nodes = (
(0,0,o),
(0,0,o),
(0,0,cs),
(0,0,o),
(0,0,o),
(0,0,cs),
(0,0,o),
(0,0,o),
(0,0,cs),
(0,0,o),
(0,0,o),
(0,0,cs)
);
},
{
closed = 1;
nodes = (
(0,0,o),
(0,0,o),
(0,0,cs),
(0,0,o),
(0,0,o),
(0,0,cs),
(0,0,o),
(0,0,o),
(0,0,cs),
(0,0,o),
(0,0,o),
(0,0,cs)
);
}
);
width = 0;
}
);
metricLeft = "=period";
metricRight = "=period";
unicode = 58;
},
{
glyphname = semicolon;
lastChange = "2024-11-13 14:41:55 +0000";
layers = (
{
layerId = "9372F035-DA38-4B54-966C-CEBA9B53DD02";
shapes = (
{
closed = 1;
nodes = (
(0,0,o),
(0,0,o),
(0,0,cs),
(0,0,o),
(0,0,o),
(0,0,cs),
(0,0,o),
(0,0,o),
(0,0,cs),
(0,0,o),
(0,0,o),
(0,0,cs),
(0,0,o),
(0,0,o),
(0,0,cs),
(0,0,o),
(0,0,o),
(0,0,cs),
(0,0,o),
(0,0,o),
(0,0,c),
(0,0,l),
(0,0,o),
(0,0,o),
(0,0,cs),
(0,0,o),
(0,0,o),
(0,0,c),
(0,0,l)
);
},
{
closed = 1;
nodes = (
(0,0,o),
(0,0,o),
(0,0,cs),
(0,0,o),
(0,0,o),
(0,0,cs),
(0,0,o),
(0,0,o),
(0,0,cs),
(0,0,o),
(0,0,o),
(0,0,cs)
);
}
);
width = 0;
}
);
metricLeft = "=period";
metricRight = "=period";
unicode = 59;
},
{
glyphname = ellipsis;
kernLeft = period;
kernRight = period;
lastChange = "2024-11-13 14:41:55 +0000";
layers = (
{
guides = (
{
angle = 270;
pos = (206,62);
},
{
angle = 270;
pos = (60,62);
},
{
angle = 270;
pos = (368,62);
},
{
angle = 270;
pos = (514,62);
},
{
angle = 270;
pos = (675,62);
},
{
angle = 270;
pos = (821,62);
},
{
pos = (441,138);
},
{
pos = (441,-14);
}
);
layerId = "9372F035-DA38-4B54-966C-CEBA9B53DD02";
shapes = (
{
closed = 1;
nodes = (
(0,0,o),
(0,0,o),
(0,0,cs),
(0,0,o),
(0,0,o),
(0,0,cs),
(0,0,o),
(0,0,o),
(0,0,cs),
(0,0,o),
(0,0,o),
(0,0,cs)
);
},
{
closed = 1;
nodes = (
(0,0,o),
(0,0,o),
(0,0,cs),
(0,0,o),
(0,0,o),
(0,0,cs),
(0,0,o),
(0,0,o),
(0,0,cs),
(0,0,o),
(0,0,o),
(0,0,cs)
);
},
{
closed = 1;
nodes = (
(0,0,o),
(0,0,o),
(0,0,cs),
(0,0,o),
(0,0,o),
(0,0,cs),
(0,0,o),
(0,0,o),
(0,0,cs),
(0,0,o),
(0,0,o),
(0,0,cs)
);
}
);
width = 0;
}
);
metricLeft = period;
metricRight = period;
unicode = 8230;
},
{
glyphname = exclam;
lastChange = "2024-11-13 14:41:55 +0000";
layers = (
{
layerId = "9372F035-DA38-4B54-966C-CEBA9B53DD02";
shapes = (
{
closed = 1;
nodes = (
(0,0,l),
(0,0,o),
(0,0,o),
(0,0,c),
(0,0,o),
(0,0,o),
(0,0,cs),
(0,0,o),
(0,0,o),
(0,0,cs),
(0,0,o),
(0,0,o),
(0,0,cs),
(0,0,o),
(0,0,o),
(0,0,c)
);
},
{
closed = 1;
nodes = (
(0,0,o),
(0,0,o),
(0,0,cs),
(0,0,o),
(0,0,o),
(0,0,cs),
(0,0,o),
(0,0,o),
(0,0,cs),
(0,0,o),
(0,0,o),
(0,0,cs)
);
}
);
width = 0;
}
);
metricLeft = period;
metricRight = "=period";
unicode = 33;
},
{
glyphname = question;
lastChange = "2024-11-13 14:41:55 +0000";
layers = (
{
layerId = "9372F035-DA38-4B54-966C-CEBA9B53DD02";
shapes = (
{
closed = 1;
nodes = (
(0,0,o),
(0,0,o),
(0,0,cs),
(0,0,o),
(0,0,o),
(0,0,c),
(0,0,o),
(0,0,o),
(0,0,cs),
(0,0,o),
(0,0,o),
(0,0,cs),
(0,0,o),
(0,0,o),
(0,0,cs),
(0,0,o),
(0,0,o),
(0,0,cs),
(0,0,o),
(0,0,o),
(0,0,cs),
(0,0,o),
(0,0,o),
(0,0,cs),
(0,0,o),
(0,0,o),
(0,0,cs),
(0,0,o),
(0,0,o),
(0,0,cs),
(0,0,o),
(0,0,o),
(0,0,cs),
(0,0,o),
(0,0,o),
(0,0,cs),
(0,0,o),
(0,0,o),
(0,0,c),
(0,0,l),
(0,0,l),
(0,0,ls),
(0,0,o),
(0,0,o),
(0,0,cs)
);
},
{
closed = 1;
nodes = (
(0,0,o),
(0,0,o),
(0,0,cs),
(0,0,o),
(0,0,o),
(0,0,cs),
(0,0,o),
(0,0,o),
(0,0,cs),
(0,0,o),
(0,0,o),
(0,0,cs)
);
}
